<?xml version="1.0" encoding="iso-8859-1"?>
<!-- Generator: Adobe Illustrator 16.0.3, SVG Export Plug-In . SVG Version: 6.00 Build 0)  -->
<!DOCTYPE svg PUBLIC "-//W3C//DTD SVG 1.1//EN" "http://www.w3.org/Graphics/SVG/1.1/DTD/svg11.dtd">
<svg version="1.1" id="Capa_1" xmlns="http://www.w3.org/2000/svg" xmlns:xlink="http://www.w3.org/1999/xlink" x="0px" y="0px"
	 width="272px" height="115px" viewBox="0 0 272 115" style="enable-background:new 0 0 272 115;" xml:space="preserve">
<rect style="fill:#393C3E;" width="272" height="115"/>
<g>
	<path style="fill:#FFFFFF;" d="M41.897,38.771c6.265,0,9.432,1.874,11.176,3.619h0.386c0.195-2.262,0.648-3.812,3.875-3.812
		c1.621,0,3.558,0.387,4.72,0.84l-0.453,4.264c-1.358-0.193-2.261-0.193-3.037-0.193c-2.777,0-2.842,1.483-2.972,3.684
		c0.325,0.968,0.516,2.259,0.516,3.164c0,6.977-5.879,10.788-14.667,10.788c-0.321,0-1.031,0-1.486-0.064
		c-2.064,0.775-5.492,2.457-5.492,4.912c0,1.938,2.134,2.389,3.62,2.389h11.048c8.076,0,12.404,2.974,12.404,9.241
		c-0.063,9.367-11.954,11.562-20.351,11.562c-5.428,0-15.892-1.163-15.892-8.786c0-4.457,3.164-6.653,5.94-8.14v-0.39
		c-3.421-1.097-4.005-3.033-4.005-4.519c0-3.813,3.942-6.205,7.368-7.429l-0.065-0.322c-4.523-1.422-7.236-4.654-7.236-9.307
		C27.361,43.165,32.98,38.771,41.897,38.771 M39.506,73.595c-1.81,0.319-5.945,2.065-5.945,5.688c0,4.069,5.171,4.842,9.176,4.842
		c4.649,0,10.399-1.354,10.464-6.202c0-2.582-1.419-4.327-5.492-4.327H39.506z M41.702,56.476c4.134,0,6.85-2.132,6.85-6.334
		c0-4.199-2.392-6.653-6.528-6.653c-4.393,0-6.652,2.52-6.652,6.718C35.372,53.373,37.309,56.476,41.702,56.476"/>
	<path style="fill:#FFFFFF;" d="M63.117,56.926c0-11.693,6.007-18.155,17.123-18.155c11.176,0,17.053,6.332,17.053,18.155
		c0,12.855-6.976,17.959-17.121,17.959C70.096,74.885,63.117,69.591,63.117,56.926 M88.894,56.926
		c0-8.917-3.551-12.079-8.654-12.079c-5.169,0-8.722,3.098-8.722,12.144c0,8.076,3.358,11.888,8.722,11.888
		C85.663,68.878,88.894,65.132,88.894,56.926"/>
	<path style="fill:#FFFFFF;" d="M102.49,24.558h8.271v11.953l-0.195,6.911l0.324,0.13c2.327-2.262,5.236-4.781,10.145-4.781
		c9.108,0,14.021,7.946,14.021,17.445c0,11.563-5.365,18.669-16.864,18.669c-3.685,0-7.625-0.45-11.822-2.517l-1.359,1.937h-2.521
		V24.558z M110.761,49.561v17.833c2.134,1.033,4.588,1.616,6.592,1.616c6.783,0,9.302-5.363,9.302-12.408
		c0-6.783-2.84-11.689-7.495-11.689C115.799,44.912,112.83,46.847,110.761,49.561"/>
	<path style="fill:#A9272B;" d="M142.315,65.778c2.779,0,4.847,1.938,4.847,4.648c0,2.586-2.067,4.458-4.847,4.458
		s-4.781-1.872-4.781-4.458C137.534,67.717,139.536,65.778,142.315,65.778"/>
	<path style="fill:#FFFFFF;" d="M240.308,66.231c-2.904-4.007-3.877-5.558-6.977-10.469c1.807-2.646,6.396-9.499,10.597-16.41h-8.79
		c-3.358,6.007-6.201,10.339-7.361,12.275h-0.325c-1.807-2.778-3.166-4.974-5.231-7.946c-2.649-3.749-4.136-4.459-7.688-4.459
		c-1.099,0-2.066,0.065-3.295,0.13v5.364c1.229,0,2.647,0.578,4.133,2.582c2.457,3.298,3.811,5.425,6.203,9.044
		c-1.533,2.229-4.023,6.028-4.999,7.242c-0.977,1.214-3.265,4-6.358,4c-4.179,0-4.238-3.204-4.238-5.413V52.08
		c0-8.206-3.558-13.31-11.437-13.31c-4.006,0-8.144,1.549-12.146,5.491h-0.455c-1.742-3.487-4.909-5.491-9.56-5.491
		c-4.199,0-7.626,1.486-11.501,5.233l-0.453-0.063l-0.841-4.588h-6.91v34.952h8.269V50.144c1.874-2.779,5.362-4.784,8.526-4.784
		c3.88,0,5.75,2.585,5.75,7.882v21.063h8.272V49.754c1.936-2.776,5.232-4.395,8.397-4.395c3.944,0,5.816,2.585,5.816,7.882
		l-0.017,10.823c0,5.523,3.539,10.24,11.207,10.24c10.796,0,12.851-5.254,14.631-7.926c1.484-2.229,3.539-5.772,3.539-5.772h0.322
		c2.195,3.49,3.812,6.207,6.203,9.435c2.712,3.554,4.197,4.586,7.493,4.586c1.293,0,2.844-0.127,3.811-0.322V68.75
		C242.957,68.686,241.667,67.844,240.308,66.231"/>
</g>
</svg>
